<svg version="1.1" xmlns="http://www.w3.org/2000/svg" xmlns:xlink="http://www.w3.org/1999/xlink" width="95.17898" height="99.84079" viewBox="0,0,95.17898,99.84079"><g transform="translate(-192.32102,-130.50077)"><g data-paper-data="{&quot;isPaintingLayer&quot;:true}" stroke="#001026" stroke-miterlimit="10" stroke-dasharray="" stroke-dashoffset="0" style="mix-blend-mode: normal"><path d="M222.2,198.4c2.2,2.8 5.6,6.3 1.3,9.2c-5.9,3.3 -10.8,-6.7 -11.8,-10.2c-0.9,-3.1 1.7,-5.1 3.9,-6.8c4.3,-3.1 7.9,-5.9 11.9,-4.4c5,1.8 1.4,5.8 -1.1,7.6c-1.5,1.1 -3,2.3 -4.1,3c-0.3,0.5 -0.4,1.1 -0.1,1.6z" fill="#ffab19" fill-rule="evenodd" stroke-width="1.2" stroke-linecap="round" stroke-linejoin="round"/><path d="M206.6,161.2c0,0 8.6,2.8 12.1,5.9" fill="none" fill-rule="evenodd" stroke-width="1.2" stroke-linecap="round" stroke-linejoin="round"/><path d="M219,170.6c-4.3,1.7 -11.7,0.6 -11.7,0.6" fill="none" fill-rule="evenodd" stroke-width="1.2" stroke-linecap="round" stroke-linejoin="round"/><path d="M285.6,172.7c-6.3,0.5 -10.2,-1.4 -10.2,-1.4" fill="none" fill-rule="evenodd" stroke-width="1.2" stroke-linecap="round" stroke-linejoin="round"/><path d="M286.9,161.5c-4.7,3.8 -11.9,3.9 -11.9,3.9" fill="none" fill-rule="evenodd" stroke-width="1.2" stroke-linecap="round" stroke-linejoin="round"/><path d="M229.7,211.5c-1.8,1.2 -8,5.6 -15.9,8.1l-0.4,0.1c-0.4,0.1 -0.6,0.6 -0.4,1c1.7,2.4 4.8,7.2 -0.7,8.9c-5.3,1.7 -15.2,-12.4 -11,-16.1c1.9,-1.4 3.6,-0.7 4.5,-0.3c0.5,0.2 1,0.2 1.5,0.1c1.2,-0.4 3.4,-1.2 5.1,-2.1c4.3,-2.2 5.3,-3.1 7.3,-4.6c2,-1.5 6.6,-5.2 10.3,-2c3.2,2.7 1.4,5.7 -0.3,6.9z" fill="#96650f" fill-rule="evenodd" stroke-width="1.2" stroke-linecap="round" stroke-linejoin="round"/><path d="M245.7,214c2.1,1.9 6.7,5.8 6.7,5.8c0,0 14.3,-2.5 14.3,4.7c0,4.3 -7.2,5.3 -16.9,4.4c-0.6,-0.1 -1.2,-0.3 -1.7,-0.7c-2.2,-1.9 -8.5,-7.5 -12.5,-11.4c-5.9,-5.8 -12.9221,-8.99368 -12.9221,-8.99368c-8.5,-8.3 -4.02526,-12.40632 -1.32527,-17.20632c0.80035,-1.31259 4.18565,-3.9419 4.90574,-4.39773c1.5292,-0.96799 5.16248,1.4819 9.24163,2.29773c3.4,0.5 5.4,0.8 7.6,0.7c3.3,-0.1 2.7,4.7 1.8,7.2c0,0 -1.4,3.7 -2.7,5.6c-1.6,2.3 -2.8,3.8 -4,4.7z" fill="#b97c13" fill-rule="evenodd" stroke-width="1.2" stroke-linecap="round" stroke-linejoin="round"/><path d="M253.7,131c0.3,-0.2 0.8,-0.1 0.9,0.3l2.6,10.7c0,0 6.4,4.7 8.3,8c3.2,5.5 3.3,10 3.3,10c0,0 7.1,2.1 8.3,7.8c1.2,5.7 -3.2,16.5 -22,20.2c-18.8,3.7 -33.9,-1.4 -41,-12.8c-7.1,-11.4 4.1,-25 3.5,-24.2l-2.1,-17.9c-0.1,-0.4 0.4,-0.7 0.8,-0.5l12.1,7.9c0,0 4.5,-1.7 9.2,-1.9c2.8,-0.2 5.2,0 7.5,0.4z" fill="#bd7e13" fill-rule="evenodd" stroke-width="1.2" stroke-linecap="butt" stroke-linejoin="miter"/><path d="M224.7,201.1c0.8,0.4 2.5,1.3 0.1,4.7c-2.4,3.4 -9.3,4.1 -10.1,4.1c-3.1,0.1 -6.9,0.1 -11.1,-1.3c-12.2,-4 -12.3,-17.1 -8.4,-19.2c3.8,-2.1 5.5,6 11,10.9c2.4,2.2 5.3,3 7.7,3.5c3.4,0.6 9.9,-3.2 10.8,-2.7z" fill="#ffab19" fill-rule="evenodd" stroke-width="1.2" stroke-linecap="round" stroke-linejoin="round"/><path d="M245.6,190.7c0.5,0.4 6.6,7.6 8.6,5.8c2.4,-2.1 5.7,-6.2 9.3,-2.9c3.6,3.3 -3.2,8.9 -6.1,10.4c-6.9,3.1 -12.5,-2.8 -13.7,-4.4c-1.2,-1.6 -3.3,-4.3 -3.3,-6.9c0.1,-2.8 3.5,-3.5 5.2,-2z" fill="#ca8714" fill-rule="evenodd" stroke-width="1.2" stroke-linecap="round" stroke-linejoin="round"/><path d="M256.87571,142.36919l0.90948,4.24421" fill="none" fill-rule="nonzero" stroke-width="1.2" stroke-linecap="round" stroke-linejoin="miter"/><path d="M227.46938,141.76287c0,0 -4.03983,1.85968 -5.43597,3.09473c-1.20208,1.06338 -2.44615,3.8779 -2.44615,3.8779" fill="none" fill-rule="nonzero" stroke-width="1.2" stroke-linecap="round" stroke-linejoin="miter"/><path d="M265.36413,157.83025l3.33474,1.81895" fill="none" fill-rule="nonzero" stroke-width="1.2" stroke-linecap="round" stroke-linejoin="miter"/><path d="M212.9178,169.0471c0,0 -0.03282,-6.18549 0.79723,-8.62951c0.9677,-2.84933 4.0533,-8.34734 4.0533,-8.34734c0,0 4.24979,-5.47212 5.5104,-6.55884c1.59191,-1.37233 4.79697,-2.5359 4.79697,-2.5359c0,0 -8.87464,14.91166 -10.43733,18.74278c-1.56991,3.84879 -1.68899,14.30143 -1.68899,14.30143z" fill="#da9216" fill-rule="nonzero" stroke-width="0" stroke-linecap="butt" stroke-linejoin="miter"/><path d="M218.41187,198.46182c0.9677,-2.84933 1.32488,-3.79997 1.32488,-3.79997c0,0 3.34031,-5.47212 4.60092,-6.55885c1.59191,-1.37233 3.58434,-0.41379 3.58434,-0.41379c0,0 -6.75253,10.06113 -8.31522,13.89226c-1.56991,3.84879 -0.81233,-0.37247 -1.19492,-3.11964z" fill="#da9216" fill-rule="nonzero" stroke-width="0" stroke-linecap="butt" stroke-linejoin="miter"/><path d="M193.81463,194.205c0,0 0.61189,-3.04685 1.8725,-4.13358c1.59191,-1.37233 2.67487,2.01147 2.67487,2.01147c0,0 2.13686,2.46688 5.25598,6.59966c3.17559,4.20759 3.08082,5.24712 2.00098,6.98966c-0.709,1.14413 -2.02968,3.99241 -5.41838,0.94931c-1.96242,-1.76228 -2.82636,-3.04991 -4.21822,-5.34544c-1.8906,-3.1181 -2.16773,-7.07109 -2.16773,-7.07109z" fill="#da9216" fill-rule="nonzero" stroke-width="0" stroke-linecap="butt" stroke-linejoin="miter"/><path d="M211.91353,217.36242c0,0 3.98839,-0.91761 8.12951,-4.02564c4.21609,-3.1643 5.25536,-3.06674 6.995,-1.98224c0.73842,0.46033 -2.42711,2.7981 -6.43963,4.87815c-2.19427,1.13748 -5.49183,1.77291 -6.57085,2.96802c-1.76754,1.9577 -2.11403,-1.83829 -2.11403,-1.83829z" fill="#da9216" fill-rule="nonzero" stroke-width="0" stroke-linecap="butt" stroke-linejoin="miter"/><path d="M263.57673,159.29437c0,0 -3.99743,0.87744 -8.16961,3.94364c-0.68017,0.49987 -1.27806,0.91693 -1.80965,1.26035c-2.78827,1.80128 -3.7531,1.57689 -5.20494,0.65139c-0.73375,-0.46774 2.45514,-2.77354 6.48839,-4.81311c2.2056,-1.11535 5.50939,-1.71755 6.60039,-2.90175c1.78715,-1.93981 2.09543,1.85947 2.09543,1.85947z" fill="#da9216" fill-rule="nonzero" stroke-width="0" stroke-linecap="butt" stroke-linejoin="miter"/></g></g></svg>