<svg xmlns="http://www.w3.org/2000/svg" xmlns:xlink="http://www.w3.org/1999/xlink" version="1.1" width="61.60733413696289" height="110.6767349243164" viewBox="-0.4999898672103882 -0.5 61.60733413696289 110.6767349243164"><g><g data-paper-data="{&quot;isPaintingLayer&quot;:true}" fill-rule="nonzero" stroke-linecap="butt" stroke-linejoin="miter" stroke-miterlimit="10" stroke-dasharray="" stroke-dashoffset="0" font-family="none" font-weight="none" font-size="none" text-anchor="none" style="mix-blend-mode: normal"><g><path d="M 24.6321 72.811 C 23.1161 80.09 23.1501 84.637 24.4971 91.881 C 25.2701 95.985 26.1131 98.682 28.4021 101.786 C 29.4751 103.242 26.4821 104.814 24.7651 104.596 C 23.5531 104.449 22.2731 102.007 24.2931 100.973 C 23.6541 98.868 22.1381 98.311 21.1961 96.391 C 18.9411 91.772 17.8291 88.998 17.4931 83.75 C 17.2581 79.941 18.2681 71.332 19.2431 70.443 C 20.6251 69.188 23.1171 71.7 24.6321 72.811 Z " fill="#ff9cd1" stroke-width="1" stroke="none"/><path d="M 25.6461 101.555 C 25.1311 101.714 23.5731 102.413 23.5731 102.413 C 23.5731 102.413 23.6091 103.083 24.1431 103.642 C 25.2381 104.788 27.7001 103.579 27.6871 102.033 C 19.9841 91.933 22.3191 72.133 24.5411 72.803 C 25.1671 73.604 24.9211 73.498 24.7651 74.438 C 22.9571 85.26 23.8271 96.615 31.2391 104.596 C 30.3561 109.427 14.9761 110.94 15.3391 108.586 C 16.0801 103.783 22.5431 101.418 23.7871 100.723 C 15.6701 93.315 16.5351 74.774 18.5111 70.284 L 19.9371 69.821 C 17.1021 87.327 19.3291 93.682 25.6461 101.555 Z " fill="#272525" stroke-width="1" stroke="none"/><path d="M 28.6041 103.579 L 29.6571 104.864 C 26.1511 108.203 16.7931 108.749 17.0891 107.552 C 17.2481 106.909 18.3781 106.112 18.8041 105.647 C 21.9921 107.037 22.4171 106.367 22.6911 102.925 C 24.8851 107.83 27.3981 103.984 28.6041 103.579 Z " fill="#ff5ba1" stroke-width="1" stroke="none"/><path d="M 21.7961 103.508 C 21.8161 105.154 20.9541 105.059 19.8441 104.619 C 20.5191 104.292 21.0461 103.646 21.7961 103.508 Z " fill="#ff9cd1" stroke-width="1" stroke="none"/></g><g><path d="M 41.3351 70.443 C 42.5651 70.109 43.3191 79.941 43.0851 83.75 C 42.7491 88.998 41.6381 91.772 39.3831 96.391 C 38.4381 98.311 36.9261 98.868 36.2851 100.973 C 38.3031 102.007 37.0241 104.449 35.8131 104.596 C 34.0961 104.814 31.1021 103.242 32.1751 101.786 C 34.4651 98.682 35.3071 95.985 36.0791 91.881 C 37.4251 84.637 37.4621 80.09 35.9451 72.811 C 37.4621 71.7 40.2521 70.739 41.3351 70.443 Z " data-paper-data="{&quot;origPos&quot;:null}" fill="#ff9cd1" stroke-width="1" stroke="none"/><path d="M 40.7921 70.446 L 42.0661 70.284 C 44.0441 74.774 44.9091 93.315 36.7911 100.723 C 38.0341 101.418 44.4991 103.783 45.2401 108.586 C 45.6021 110.94 30.2231 109.427 29.3391 104.596 C 36.7501 96.615 37.6221 85.26 35.8131 74.438 C 35.6581 73.498 35.4121 73.604 36.0361 72.803 C 38.2581 72.133 40.5941 91.933 32.8911 102.033 C 32.8781 103.579 35.3411 104.788 36.4361 103.642 C 36.9671 103.083 37.0041 102.413 37.0041 102.413 C 37.0041 102.413 35.4481 101.714 34.9321 101.555 C 41.2491 93.682 43.6261 87.953 40.7921 70.446 Z " fill="#272525" stroke-width="1" stroke="none"/><path d="M 37.8861 102.925 C 38.1601 106.367 38.5851 107.037 41.7731 105.647 C 42.2001 106.112 43.3291 106.909 43.4881 107.552 C 43.7861 108.749 34.4281 108.203 30.9201 104.864 L 31.9731 103.579 C 33.1801 103.984 35.6911 107.83 37.8861 102.925 Z " fill="#ff5ba1" stroke-width="1" stroke="none"/><path d="M 40.7321 104.619 C 39.6231 105.059 38.7601 105.154 38.7791 103.508 C 39.5311 103.646 40.0591 104.292 40.7321 104.619 Z " fill="#ff9cd1" stroke-width="1" stroke="none"/></g><g><path d="M 14.6661 8.351 C 14.5161 9.516 13.6241 10.107 12.5801 10.347 C 10.6611 10.809 11.4521 14.505 9.4831 14.708 C 8.4721 14.82 7.9341 14.098 6.9241 14.265 C 5.6961 14.469 5.8301 16.243 4.6351 16.631 C 3.5401 16.982 2.1431 17.074 1.8061 15.892 C 1.5361 14.931 2.0081 14.322 2.1431 13.305 C 1.9571 12.307 0.8291 12.492 0.2561 11.679 C -0.3489 10.81 0.2071 9.665 0.9981 9.018 C 2.1261 8.093 3.7421 8.851 4.3651 7.466 C 4.6001 6.949 4.3981 6.523 4.5671 5.987 C 5.2251 3.899 7.8831 4.14 9.6831 5.174 C 10.4591 5.619 10.9631 4.545 11.8381 4.435 C 12.7981 4.306 13.8411 4.712 13.9931 5.766 C 14.1441 6.818 14.8001 7.318 14.6661 8.351 Z " fill="#272525" stroke-width="1" stroke="none"/><path d="M 15.9561 10.704 C 15.3811 11.02 12.8311 10.755 12.2761 9.993 C 11.6151 9.085 12.9171 5.59 13.8061 5.346 C 14.5091 5.153 16.7851 6.28 16.9731 7.207 C 17.0451 7.568 16.8331 10.223 15.9561 10.704 Z " fill="#272525" stroke-width="1" stroke="none"/><path d="M 15.8791 9.979 C 15.5411 10.165 13.4211 9.869 13.1521 9.5 C 12.8831 9.128 13.8591 6.32 14.2631 6.209 C 14.6661 6.098 16.4181 7.096 16.4851 7.429 C 16.5511 7.761 16.2151 9.794 15.8791 9.979 Z " fill="#ff9cd1" stroke-width="1" stroke="none"/></g><g><path d="M 46.2521 6.471 C 46.2521 5.342 46.8951 4.295 47.9211 4.245 C 48.7851 4.213 49.1451 5.145 50.0081 5.096 C 50.7381 5.047 50.9491 4.395 51.6181 4.049 C 53.5841 3.029 54.9711 3.82 55.1341 5.424 C 55.3281 7.354 58.7421 6.765 58.5331 8.697 C 58.4591 9.416 57.7871 9.678 57.8781 10.399 C 57.9381 10.971 58.5331 10.971 58.9501 11.315 C 59.5461 11.805 60.2941 12.554 60.3391 13.389 C 59.9831 14.567 59.5041 15.352 58.4321 15.745 C 57.3861 16.121 56.2371 14.8 55.2531 14.324 C 54.4491 13.933 54.0181 15.012 53.1661 15.241 C 51.9601 15.569 50.4391 15.323 50.1871 13.997 C 50.0211 13.13 50.3041 12.1 49.5291 11.837 C 48.6211 11.543 47.5321 11.691 47.3221 10.66 C 47.1911 9.956 47.8001 9.383 47.3841 8.827 C 46.9831 8.287 46.0571 8.827 45.8341 8.173 C 45.6271 7.535 46.2521 7.159 46.2521 6.471 Z " fill="#272525" stroke-width="1" stroke="none"/><path d="M 42.8131 7.207 C 43.0001 6.279 45.2741 5.152 45.9791 5.346 C 46.8671 5.59 48.1701 9.085 47.5081 9.993 C 46.9531 10.755 44.4021 11.02 43.8281 10.704 C 42.9511 10.223 42.7381 7.568 42.8131 7.207 Z " fill="#272525" stroke-width="1" stroke="none"/><path d="M 43.2991 7.429 C 43.3661 7.096 45.1171 6.098 45.5221 6.209 C 45.9271 6.32 46.9031 9.128 46.6341 9.5 C 46.3631 9.869 44.2411 10.165 43.9051 9.979 C 43.5681 9.794 43.2321 7.761 43.2991 7.429 Z " fill="#ff9cd1" stroke-width="1" stroke="none"/></g><g><path d="M 13.5901 17.247 C 12.4991 16.469 12.1151 14.99 12.7321 13.946 C 13.3501 12.903 14.7361 12.687 15.8281 13.466 C 16.9181 14.244 17.3021 15.723 16.6851 16.766 C 16.0671 17.81 14.6811 18.026 13.5901 17.247 Z " data-paper-data="{&quot;origPos&quot;:null}" fill="#272525" stroke-width="1" stroke="none"/><path d="M 16.4961 16.543 C 16.1211 17.177 15.2351 17.275 14.5181 16.764 C 13.8021 16.252 13.5221 15.324 13.8971 14.692 C 14.2721 14.059 15.1571 13.959 15.8751 14.471 C 16.5931 14.981 16.8701 15.909 16.4961 16.543 Z " data-paper-data="{&quot;origPos&quot;:null}" fill="#cf8c6e" stroke-width="1" stroke="none"/></g><g data-paper-data="{&quot;origPos&quot;:null}"><path d="M 43.1651 16.766 C 42.5481 15.723 42.9341 14.244 44.0231 13.466 C 45.1151 12.687 46.5011 12.903 47.1181 13.946 C 47.7361 14.99 47.3511 16.469 46.2611 17.247 C 45.1691 18.026 43.7841 17.81 43.1651 16.766 Z " fill="#272525" stroke-width="1" stroke="none"/><path d="M 43.9761 14.471 C 44.6931 13.959 45.5791 14.059 45.9551 14.692 C 46.3281 15.324 46.0501 16.253 45.3331 16.764 C 44.6161 17.275 43.7301 17.177 43.3551 16.543 C 42.9791 15.909 43.2571 14.981 43.9761 14.471 Z " fill="#cf8c6e" stroke-width="1" stroke="none"/><path d="M 43.1651 16.766 C 42.5481 15.723 42.9341 14.244 44.0231 13.466 C 45.1151 12.687 46.5011 12.903 47.1181 13.946 C 47.7361 14.99 47.3511 16.469 46.2611 17.247 C 45.1691 18.026 43.7841 17.81 43.1651 16.766 Z " fill="none" stroke-width="1" stroke="none"/><path d="M 43.1651 16.766 C 42.5481 15.723 42.9341 14.244 44.0231 13.466 C 45.1151 12.687 46.5011 12.903 47.1181 13.946 C 47.7361 14.99 47.3511 16.469 46.2611 17.247 C 45.1691 18.026 43.7841 17.81 43.1651 16.766 Z " fill="none" stroke-width="1" stroke="none"/></g><path d="M 23.0161 50.189 L 22.6121 27.422 L 25.7091 26.091 C 24.5651 29.121 26.5841 32.596 29.4801 33.483 C 32.5791 34.407 34.6301 30.193 34.8681 26.683 C 37.2911 27.792 37.2221 27.274 37.4261 30.157 C 37.6941 33.854 36.3361 49.32 38.2351 49.598 C 40.2551 49.893 42.1731 49.265 44.2951 50.485 C 46.4831 51.741 47.3921 53.367 49.8161 53.737 C 53.4541 54.329 54.1601 58.061 56.5491 61.13 C 58.6031 63.753 60.6231 69.002 57.6261 70.001 C 54.6961 70.997 52.0381 68.78 49.6831 71.034 C 46.9901 73.623 43.7221 69.444 40.5271 71.182 C 39.0451 71.994 38.2691 73.067 36.6211 72.955 C 34.9041 72.807 34.1651 71.329 32.4471 71.476 C 29.7181 71.698 28.2391 74.655 25.7131 73.546 C 23.2561 72.437 22.1791 70.108 19.5201 70.293 C 17.7351 70.403 16.6241 71.364 14.9401 70.733 C 13.5261 70.217 13.1901 68.629 11.7091 68.371 C 10.0591 68.074 9.0831 69.035 7.3991 68.962 C 5.4121 68.888 5.9181 65.894 5.1091 63.937 C 4.4021 62.199 2.4841 61.718 2.6841 59.796 C 2.9541 57.097 5.3441 55.989 7.8011 55.806 C 11.2691 55.545 12.0091 50.78 15.4771 50.78 C 18.4711 50.783 20.2211 51.707 23.0161 50.189 Z " fill="#ff5ba1" stroke-width="1" stroke="none"/><path d="M 17.1051 66.469 C 17.2031 62.898 21.1041 63.648 22.6251 62.369 C 23.8621 61.328 22.6961 59.507 22.8041 58.279 C 22.9631 56.499 24.5531 55.729 25.7141 55.049 C 24.9951 56.453 24.6021 56.936 24.8011 58.916 C 25.7081 67.895 20.8271 62.537 20.1391 67.129 C 19.2091 68.146 17.0571 68.34 17.1051 66.469 Z " fill="#272525" stroke-width="1" stroke="none"/><path d="M 35.2841 56.435 C 41.6871 58.18 37.7791 60.228 38.2261 62.623 C 39.7031 63.622 41.7671 63.486 42.7771 65.273 C 43.2771 66.16 44.0761 69.245 42.0771 68.693 C 41.6781 68.585 41.2301 68.018 41.1681 67.581 C 40.7911 65.002 39.2661 64.801 37.5611 63.544 C 34.8701 61.559 39.7251 59.419 35.2841 56.435 Z " fill="#272525" stroke-width="1" stroke="none"/><path d="M 9.5531 62.838 C 15.4231 62.516 13.4761 57.294 18.1741 56.204 C 18.7741 56.223 19.1671 56.088 19.1371 56.805 C 19.0801 58.151 17.0271 57.759 16.3571 58.821 C 15.3931 60.35 14.9271 63.955 10.6131 65.016 C 8.4901 65.538 8.0711 62.918 9.5531 62.838 Z " fill="#272525" stroke-width="1" stroke="none"/><path d="M 28.5381 22.916 C 29.4631 22.896 29.9681 22.527 30.8941 22.472 C 31.9711 22.418 33.2171 21.771 33.6551 22.842 C 34.0931 23.914 33.0511 24.69 33.2531 25.873 C 37.4271 25.873 38.8241 29.828 41.6011 33.265 C 43.2871 35.353 44.4141 42.894 44.1621 44.723 C 43.4881 49.38 42.2731 52.485 39.6501 55.737 C 38.3261 57.374 40.6091 58.988 41.0641 61.133 C 41.2461 62.057 41.2461 63.422 40.3901 63.422 C 39.4631 63.422 39.2951 62.371 38.5041 61.799 C 38.4201 63.053 38.5541 64.384 37.4941 64.827 C 36.4331 65.272 36.4851 63.074 35.5421 62.389 C 34.7841 63.221 34.0091 64.92 33.2531 64.089 C 32.4931 63.257 33.0831 62.149 33.4531 61.059 C 33.8581 59.876 34.8851 58.82 34.1271 57.88 C 33.4531 57.049 32.4421 56.79 32.4421 55.661 C 33.9561 55.384 35.2021 56.291 36.3461 55.221 C 37.6421 53.999 37.9951 53.093 38.7021 51.375 C 39.9991 48.271 40.0161 45.48 39.3761 42.136 C 39.0751 40.529 38.6191 39.974 37.5591 38.81 C 36.4151 37.553 37.9951 30.789 37.2881 28.461 C 36.9531 27.352 35.8581 27.443 34.9321 26.834 C 34.5781 28.443 34.7331 29.403 34.2591 30.974 C 33.6521 33.007 31.9201 34.208 30.0181 33.783 C 26.8531 33.061 24.9011 30.216 24.9011 26.686 L 22.6791 27.352 C 22.4261 30.992 23.2001 37.127 23.0151 37.922 C 22.7281 39.104 20.2551 42.061 19.2441 45.239 C 18.1341 48.732 19.3961 51.615 21.6671 54.404 C 22.9141 55.939 23.7561 56.66 25.1021 58.027 C 26.3311 59.284 27.6441 56.993 29.3441 56.993 C 29.5291 58.694 29.1751 59.414 28.2661 60.762 C 29.4791 61.946 30.9601 62.241 31.0281 64.016 C 31.0781 65.511 28.8231 63.792 27.4591 63.792 C 27.9141 64.806 28.4861 67.248 27.4591 67.193 C 26.2461 67.117 25.9601 65.753 25.5061 64.531 C 24.7481 65.455 24.4781 66.749 23.3511 66.675 C 21.8701 66.084 23.4181 64.291 23.7551 62.831 C 23.9071 62.166 24.2911 61.382 23.7551 61.059 C 20.5911 59.135 17.2241 54.701 16.3491 52.927 C 15.1361 50.449 14.2781 48.88 14.1941 46.052 C 14.0271 40.601 15.0871 37.108 18.1671 32.747 C 19.6651 30.622 20.5231 29.366 22.6101 27.943 C 24.2271 26.833 27.3571 26.039 26.2471 24.394 C 25.9441 23.358 27.5441 22.952 28.5381 22.916 Z " data-paper-data="{&quot;origPos&quot;:null}" fill="#cf8c6e" stroke-width="1" stroke="none"/><path d="M 34.1461 25.249 C 40.6271 28.333 43.8141 34.798 44.3941 38.891 C 45.5491 47.074 43.4981 50.163 39.6791 57.142 C 40.4901 59.166 42.2001 61.29 41.2261 63.621 C 40.4901 64.026 39.3531 63.311 38.8571 62.543 C 38.4861 65.373 36.8781 66.98 35.6201 63.522 C 34.9161 64.114 34.8911 64.961 33.8571 64.961 C 30.8151 64.965 33.3311 60.007 33.6691 58.516 C 32.6591 57.841 30.5381 55.961 32.2481 54.537 C 33.7081 53.321 34.8911 57.132 36.7341 53.933 C 40.1221 48.068 40.3081 42.866 37.8551 40.579 C 37.7791 42.947 38.3921 50.796 38.2991 51.741 C 38.2061 52.683 36.9451 52.849 36.8861 51.999 C 36.8261 51.146 36.6741 29.531 36.7121 28.784 C 36.7501 28.037 37.4891 27.885 37.6081 29.063 C 37.7251 30.24 37.6261 35.479 37.8381 38.288 C 42.8201 41.24 39.8311 52.717 35.9361 56.639 C 35.2251 56.537 33.4611 55.383 32.8701 56.205 C 33.1311 57.298 34.5321 57.182 35.1691 58.195 C 34.6731 59.851 33.9811 61.451 33.7331 63.187 C 33.7331 63.187 33.8231 64.14 34.2121 63.577 C 35.1381 62.224 35.5891 61.096 36.4831 59.297 C 36.4831 59.297 36.2271 63.098 37.0571 64.467 C 38.0121 64.647 37.6821 59.821 37.6801 59.201 C 38.1531 59.652 39.5141 62.353 40.3931 62.935 C 42.0391 61.623 38.0591 58.504 38.8281 56.802 C 40.7401 52.568 42.0461 53.238 43.2331 48.472 C 44.4631 43.541 43.1261 29.683 32.7781 26.125 C 32.6101 25.089 32.6531 23.021 32.6531 23.021 L 33.9891 23.205 Z " fill="#272525" stroke-width="1" stroke="none"/><path d="M 27.0461 26.109 C 22.0951 27.526 18.2161 32.828 16.2911 37.818 C 12.6661 47.212 16.4751 56.32 24.6981 61.354 C 24.1601 62.682 23.2191 64.225 23.2761 66.078 C 23.2761 66.078 23.4611 66.582 23.7641 66.243 C 24.6201 65.285 25.4181 62.714 25.4181 62.714 C 25.6001 63.335 26.6791 66.198 27.0521 66.523 C 27.2111 66.663 27.4631 66.775 27.4381 66.228 C 27.3751 64.832 26.9151 63.443 26.6391 62.14 C 26.6391 62.14 29.5381 64.267 29.9361 64.06 C 31.0641 63.474 27.8021 61.09 27.4911 60.793 C 27.7631 59.797 28.9451 59.409 29.0161 58.252 C 29.0451 57.774 28.4661 57.675 28.4661 57.675 C 27.1011 58.382 26.9171 60.439 25.3161 58.81 C 20.7311 54.15 17.4301 52.263 18.9191 45.04 C 19.3791 42.808 20.5281 39.537 22.3651 38.366 C 22.3441 37.074 22.2571 28.073 22.3431 27.796 C 22.5221 27.224 23.2361 27.33 23.3821 27.886 C 23.3821 27.886 23.8601 52.042 23.7921 52.799 C 23.7241 53.558 22.5971 53.214 22.4791 52.562 C 22.3591 51.906 22.4191 40.06 22.4191 40.06 C 18.0481 45.998 20.0231 54.656 26.3161 58.031 C 28.7411 55.497 31.4371 56.384 28.9141 60.426 C 32.2661 62.715 33.0501 67.491 28.0611 64.151 C 28.0411 65.018 29.0301 67.333 27.4801 67.957 C 26.2481 68.455 25.6541 65.841 25.3131 65.251 C 24.4951 66.862 23.5261 67.601 23.0171 67.272 C 22.2851 66.799 21.8731 64.537 23.8281 61.448 C 10.3671 52.658 9.7871 36.162 22.9701 26.788 C 23.9091 26.121 24.9001 25.726 25.8941 25.19 C 26.0911 24.339 25.9441 23.339 25.9441 23.339 L 27.3151 23.095 Z " fill="#272525" stroke-width="1" stroke="none"/><path d="M 24.7951 47.151 C 23.9921 47.151 24.1141 45.831 24.6931 45.831 C 25.2711 45.831 34.6101 45.591 35.4791 45.591 C 36.3481 45.591 36.3621 47.134 35.5301 47.134 C 34.6971 47.135 25.5981 47.151 24.7951 47.151 Z " fill="#272525" stroke-width="1" stroke="none"/><path d="M 36.0111 51.041 C 36.5361 51.041 36.6881 51.918 35.9611 51.918 C 35.2361 51.918 25.5151 52.076 24.8671 52.076 C 24.2191 52.076 24.0271 50.93 24.7331 50.93 C 25.4381 50.93 35.4821 51.041 36.0111 51.041 Z " fill="#272525" stroke-width="1" stroke="none"/><path d="M 11.2441 52.111 C 11.4681 50.818 13.4401 50.414 14.9201 50.329 C 14.9201 50.329 16.0371 52.325 16.5451 52.4 C 15.1371 51.744 13.6321 51.198 13.1191 52.185 C 11.7721 54.773 10.1081 56.163 8.2841 56.201 C 5.7411 56.254 3.0411 58.875 4.3521 61.596 C 5.1181 63.186 6.8131 63.565 6.4991 65.889 C 6.0271 69.384 11.8941 66.17 13.6631 68.024 C 14.8001 69.213 16.1251 70.352 17.8251 69.897 C 19.6811 69.397 21.1381 69.051 22.9821 69.965 C 24.1031 70.52 24.9291 72.154 26.1211 72.547 C 29.3331 73.602 30.5341 69.114 35.1731 71.438 C 37.6451 72.671 40.5631 68.789 43.0881 69.942 C 45.1501 70.886 46.2401 72.055 48.5781 70.801 C 50.0761 70.002 51.1051 68.254 52.9221 68.875 C 53.9021 69.212 56.0081 69.48 56.8891 68.787 C 60.6751 65.808 55.0671 61.064 53.5911 59.217 C 52.7151 58.118 52.9931 56.524 51.5751 55.612 C 49.0371 53.981 47.4711 55.414 45.2151 52.211 C 44.1591 50.713 43.3071 51.793 42.2821 51.512 C 42.5681 50.9 42.8921 50.338 43.2011 49.771 C 47.2561 49.826 47.5921 53.299 48.5551 53.172 C 50.4791 52.923 52.8781 52.707 54.0901 54.806 C 54.7601 55.969 54.6641 57.586 55.3111 58.683 C 57.3381 62.14 61.7311 61.495 60.3401 67.447 C 58.9731 73.302 54.4341 69.38 51.0651 70.633 C 49.8461 72.506 47.5121 74.61 45.2541 73.877 C 43.4731 73.301 42.2121 69.838 40.0221 71.943 C 35.9421 75.866 34.1121 71.423 32.1641 72.261 C 29.7691 73.291 29.9331 75.666 26.3741 75.056 C 23.3231 74.531 21.2971 70.048 19.4621 71.077 C 14.8591 73.662 13.0041 68.442 11.0151 69.051 C 9.8721 69.402 8.9431 70.605 7.3131 69.947 C 3.6301 68.46 6.4481 66.306 3.2501 63.937 C 2.1741 63.14 1.5751 60.527 1.8761 59.289 C 4.0891 50.117 10.0411 57.947 11.2441 52.111 Z " fill="#272525" stroke-width="1" stroke="none"/><path d="M 45.8931 57.1601 C 46.1771 64.7171 54.3051 61.6211 54.4031 65.6741 C 54.4091 65.9301 54.0141 67.0121 53.8351 67.1821 C 51.8171 69.0981 52.0531 63.5531 49.9311 63.3771 C 48.2771 63.2401 46.8731 63.7171 45.5271 62.2621 C 44.0621 60.6821 46.3181 59.7641 43.3161 56.6991 C 41.7601 55.1121 45.8461 55.9801 45.8931 57.1601 Z " data-paper-data="{&quot;origPos&quot;:null}" fill="#272525" stroke-width="1" stroke="none"/><path d="M 15.5521 12.492 C 14.7761 11.79 14.3471 10.663 14.6421 9.462 C 14.9491 8.242 16.3171 8.87 16.6781 7.689 C 16.9731 6.727 16.6921 5.951 17.0531 5.026 C 17.5751 3.714 18.6201 3.363 19.6791 3.695 C 21.7561 4.361 21.0971 1.644 23.1081 0.665 C 24.9301 -0.221 25.6801 1.571 26.5371 1.701 C 27.6491 1.867 28.0381 0 29.9671 0 C 31.8971 0 32.1921 1.867 33.3031 1.7 C 34.1601 1.57 34.9111 -0.221 36.7331 0.664 C 38.7461 1.644 38.0871 4.36 40.1651 3.695 C 41.2241 3.363 42.2691 3.714 42.7891 5.026 C 43.1511 5.95 42.8701 6.726 43.1651 7.688 C 43.5261 8.87 44.8941 8.242 45.2011 9.461 C 45.4951 10.663 45.0671 11.79 44.2901 12.491 Z " fill="#272525" stroke-width="1" stroke="none"/><path d="M 13.5901 17.247 C 12.4991 16.469 12.1151 14.99 12.7321 13.946 C 13.3501 12.903 14.7361 12.687 15.8281 13.466 C 16.9181 14.244 17.3021 15.723 16.6851 16.766 C 16.0671 17.81 14.6811 18.026 13.5901 17.247 Z " fill="none" stroke-width="1" stroke="none"/><path d="M 13.5901 17.247 C 12.4991 16.469 12.1151 14.99 12.7321 13.946 C 13.3501 12.903 14.7361 12.687 15.8281 13.466 C 16.9181 14.244 17.3021 15.723 16.6851 16.766 C 16.0671 17.81 14.6811 18.026 13.5901 17.247 Z " fill="none" stroke-width="1" stroke="none"/><path d="M 15.0711 15.08 C 15.0711 9.6505 21.7331 5.249 29.9511 5.249 C 38.1691 5.249 44.8311 9.6505 44.8311 15.08 C 44.8311 20.5095 38.1691 24.911 29.9511 24.911 C 21.7331 24.911 15.0711 20.5095 15.0711 15.08 Z " data-paper-data="{&quot;origPos&quot;:null}" fill="#272525" stroke-width="1" stroke="none"/><path d="M 43.2791 15.08 C 43.2791 18.894 38.0951 23.876 29.9511 23.876 C 21.8041 23.876 16.6211 18.894 16.6211 15.08 C 16.6211 11.267 21.8031 6.952 29.9501 6.952 C 38.0971 6.952 43.2791 11.267 43.2791 15.08 Z " fill="#cf8c6e" stroke-width="1" stroke="none"/><path d="M 35.6501 26.524 C 35.4371 29.683 35.1071 33.082 31.8831 34.182 C 30.5191 34.648 28.1841 34.216 26.9531 33.256 C 25.0461 31.769 24.6921 28.092 24.7741 25.955 C 24.9291 25.635 25.8401 25.295 26.0461 25.957 C 24.5631 32.523 33.6691 37.796 34.5361 26.159 C 34.9301 26.084 35.3201 26.305 35.6501 26.524 Z " fill="#272525" stroke-width="1" stroke="none"/><g data-paper-data="{&quot;origPos&quot;:null}"><path d="M 29.7031 16.2771 L 29.7431 16.2771 C 30.9551 16.2591 31.1901 15.4591 31.2721 15.1061 C 31.3541 14.7491 32.1661 14.6381 32.2301 15.1151 C 32.2631 15.3601 31.7601 17.1151 29.7421 17.1371 L 29.7051 17.1371 C 27.6821 17.1161 27.1821 15.3601 27.2141 15.1151 C 27.2801 14.6381 28.0921 14.7491 28.1741 15.1061 C 28.2551 15.4581 28.4931 16.2581 29.7031 16.2771 Z " data-paper-data="{&quot;origPos&quot;:null}" stroke-width="1" fill="#272525" stroke="none"/><path d="M 23.4391 17.9351 C 23.4391 17.9351 25.7581 19.0441 29.7901 19.0441 C 33.8221 19.0441 36.1431 17.9351 36.1431 17.9351 C 36.1431 18.9971 33.8251 22.8321 29.7901 22.8321 C 25.7581 22.8321 23.4391 18.9961 23.4391 17.9351 Z " data-paper-data="{&quot;origPos&quot;:null}" stroke-width="1" fill="#272525" stroke="none"/><path d="M 23.1251 11.8081 C 23.1251 10.9918 23.6225 10.3301 24.2361 10.3301 C 24.8497 10.3301 25.3471 10.9918 25.3471 11.8081 C 25.3471 12.6244 24.8497 13.2861 24.2361 13.2861 C 23.6225 13.2861 23.1251 12.6244 23.1251 11.8081 Z " data-paper-data="{&quot;origPos&quot;:null}" stroke-width="1" fill="#272525" stroke="none"/><path d="M 34.2351 11.8081 C 34.2351 10.9918 34.7325 10.3301 35.3461 10.3301 C 35.9597 10.3301 36.4571 10.9918 36.4571 11.8081 C 36.4571 12.6244 35.9597 13.2861 35.3461 13.2861 C 34.7325 13.2861 34.2351 12.6244 34.2351 11.8081 Z " data-paper-data="{&quot;origPos&quot;:null}" stroke-width="1" fill="#272525" stroke="none"/></g></g></g></svg>