<svg xmlns="http://www.w3.org/2000/svg" xmlns:xlink="http://www.w3.org/1999/xlink" version="1.1" width="218.076171875" height="126.96458435058594" viewBox="-0.1511656641960144 -0.6135738641023636 218.076171875 126.96458435058594"><g><g data-paper-data="{&quot;isPaintingLayer&quot;:true}" fill-rule="nonzero" stroke-linecap="none" stroke-linejoin="none" stroke-miterlimit="10" stroke-dasharray="" stroke-dashoffset="0" font-family="none" font-weight="none" font-size="none" text-anchor="none" style="mix-blend-mode: normal"><g data-paper-data="{&quot;index&quot;:null}" id="Pink-Stripe" stroke-linecap="butt" stroke-linejoin="miter"><path d="M 217.15 108.058 L 160.075 108.058 C 159.362 106.798 158.45 105.662 157.375 104.694 L 217.15 104.694 Z " id="Path" stroke-width="1.2" fill="#fc9fe4" stroke="#fc9fe4"/><path d="M 136.6 108.058 L 56.125 108.058 C 55.395 106.802 54.476 105.668 53.4 104.694 L 139.3 104.694 C 138.232 105.669 137.321 106.803 136.6 108.058 Z " id="Path" stroke-width="1.2" fill="#fc9fe4" stroke="#fc9fe4"/><path d="M 35.325 104.619 C 34.258 105.623 33.348 106.782 32.625 108.058 L 0.6 108.058 L 0.6 104.619 Z " id="Path" stroke-width="1.2" fill="#fc9fe4" stroke="#fc9fe4"/></g><path d="M 4.925 0.148 L 206.675 0.148 C 208.5 10.413 214.3 43.392 214.3 46.127 L 214.3 104.229 L 157.375 104.229 C 152.239 99.583 144.436 99.583 139.3 104.229 L 53.4 104.229 C 48.264 99.583 40.461 99.583 35.325 104.229 L 0.6 104.229 L 0.6 37.92 L 0.6 4.54 C 0.593 3.382 1.045 2.268 1.856 1.445 C 2.667 0.621 3.771 0.154 4.925 0.148 Z " data-paper-data="{&quot;index&quot;:null}" id="Path" fill="#ea3681" stroke="none" stroke-width="1" stroke-linecap="butt" stroke-linejoin="miter"/><g data-paper-data="{&quot;index&quot;:null}" id="Bergundy" stroke-linecap="butt" stroke-linejoin="miter"><path d="M 134.8 114.714 L 57.9 114.714 C 57.891 112.372 57.279 110.073 56.125 108.038 L 136.6 108.038 C 135.427 110.066 134.807 112.369 134.8 114.714 Z " id="Path" stroke-width="1.2" fill="#5e154d" stroke="#5e154d"/><path d="M 217.15 110.372 C 217.136 112.764 215.208 114.7 212.825 114.714 L 161.875 114.714 C 161.868 112.369 161.248 110.066 160.075 108.038 L 217.15 108.038 Z " id="Path" stroke-width="1.2" fill="#5e154d" stroke="#5e154d"/><path d="M 32.625 108.038 C 31.451 110.093 30.83 112.42 30.825 114.789 L 4.925 114.789 C 2.542 114.776 0.614 112.84 0.6 110.447 L 0.6 108.038 Z " id="Path" stroke-width="1.2" fill="#5e154d" stroke="#5e154d"/></g><g data-paper-data="{&quot;index&quot;:null}" id="Top-Windows"><path d="M 177.6 9.52 L 187.175 34.618 L 158.625 34.618 L 149.05 9.52 L 177.6 9.52 " id="Path" fill="#a170e0" stroke="none" stroke-width="1" stroke-linecap="butt" stroke-linejoin="miter"/><path d="M 179.05 9.52 L 188.625 34.618 L 187.175 34.618 L 177.6 9.52 L 179.05 9.52 " id="Path" fill="#c5a2fc" stroke="none" stroke-width="1" stroke-linecap="butt" stroke-linejoin="miter"/><path d="M 151.05 9.52 L 160.775 34.618 L 157.175 34.618 L 147.575 9.52 L 151.05 9.52 " id="Path" fill="#c5a2fc" stroke="none" stroke-width="1" stroke-linecap="butt" stroke-linejoin="miter"/><path d="M 147.575 9.52 L 157.175 34.618 L 96.225 34.618 L 86.65 9.52 L 147.575 9.52 " id="Path" fill="#a170e0" stroke="none" stroke-width="1" stroke-linecap="butt" stroke-linejoin="miter"/><path d="M 182.25 9.52 L 191.825 34.618 L 188.625 34.618 L 179.05 9.52 L 182.25 9.52 " id="Path" fill="#a170e0" stroke="none" stroke-width="1" stroke-linecap="butt" stroke-linejoin="miter"/><path d="M 187.75 9.52 L 197.375 34.618 L 191.825 34.618 L 182.25 9.52 L 187.75 9.52 " id="Path" fill="#c5a2fc" stroke="none" stroke-width="1" stroke-linecap="butt" stroke-linejoin="miter"/><path d="M 198.425 9.52 C 200.425 9.52 200.225 9.119 200.625 10.926 C 201.025 12.733 203.55 29.097 203.875 31.556 C 204.2 34.016 203.375 34.669 201.375 34.669 L 197.375 34.669 L 187.75 9.571 Z " id="Path" fill="#a170e0" stroke="none" stroke-width="1" stroke-linecap="butt" stroke-linejoin="miter"/><path d="M 77.975 9.52 L 87.55 34.618 L 25.625 34.618 L 16.05 9.52 L 77.975 9.52 " id="Path" fill="#a170e0" stroke="none" stroke-width="1" stroke-linecap="butt" stroke-linejoin="miter"/><path d="M 17.95 9.52 L 27.425 34.618 L 24.15 34.618 L 14.575 9.52 L 17.95 9.52 " id="Path" fill="#c5a2fc" stroke="none" stroke-width="1" stroke-linecap="butt" stroke-linejoin="miter"/><path d="M 10.525 9.52 L 14.575 9.52 L 24.15 34.618 L 10.525 34.618 L 10.525 9.52 " id="Path" fill="#a170e0" stroke="none" stroke-width="1" stroke-linecap="butt" stroke-linejoin="miter"/><path d="M 81.95 9.52 L 91.525 34.618 L 85.75 34.618 L 76.45 9.52 L 81.95 9.52 " id="Path" fill="#c5a2fc" stroke="none" stroke-width="1" stroke-linecap="butt" stroke-linejoin="miter"/><path d="M 86.65 9.52 L 96.225 34.618 L 94.775 34.618 L 85.175 9.52 L 86.65 9.52 " id="Path" fill="#c5a2fc" stroke="none" stroke-width="1" stroke-linecap="butt" stroke-linejoin="miter"/><path d="M 85.175 9.52 L 94.775 34.618 L 91.525 34.618 L 81.95 9.52 L 85.175 9.52 " id="Path" fill="#a170e0" stroke="none" stroke-width="1" stroke-linecap="butt" stroke-linejoin="miter"/><path d="M 200.525 10.876 C 200.925 12.683 203.6 29.197 203.875 31.506 C 204.15 33.815 203.275 34.618 201.375 34.618 L 10.425 34.618 L 10.425 9.52 L 198.3 9.52 C 200.325 9.52 200.125 9.069 200.525 10.876 Z " id="Path" fill="none" stroke="#5e154d" stroke-width="0.9" stroke-linecap="round" stroke-linejoin="round"/><path d="M 173.15 34.669 L 169.675 34.669 L 169.675 9.47 L 173.15 9.47 Z " id="Rectangle" fill="#5e154d" stroke="#5e154d" stroke-width="0.725" stroke-linecap="round" stroke-linejoin="round"/><path d="M 139.6 34.669 L 136.125 34.669 L 136.125 9.47 L 139.6 9.47 Z " id="Rectangle" fill="#5e154d" stroke="#5e154d" stroke-width="0.725" stroke-linecap="round" stroke-linejoin="round"/><path d="M 105.725 34.669 L 102.25 34.669 L 102.25 9.47 L 105.725 9.47 Z " id="Rectangle" fill="#5e154d" stroke="#5e154d" stroke-width="0.725" stroke-linecap="round" stroke-linejoin="round"/><path d="M 71.825 34.669 L 68.35 34.669 L 68.35 9.47 L 71.825 9.47 Z " id="Rectangle" fill="#5e154d" stroke="#5e154d" stroke-width="0.725" stroke-linecap="round" stroke-linejoin="round"/><path d="M 37.925 34.669 L 34.45 34.669 L 34.45 9.47 L 37.925 9.47 Z " id="Rectangle" fill="#5e154d" stroke="#5e154d" stroke-width="0.725" stroke-linecap="round" stroke-linejoin="round"/></g><g data-paper-data="{&quot;index&quot;:null}" id="Left-Wheel"><path d="M 153.504 109.659 C 154.799 110.959 155.6 112.753 155.6 114.734 C 155.6 116.714 154.799 118.509 153.504 119.808 C 152.21 121.107 150.423 121.912 148.45 121.912 C 146.477 121.912 144.69 121.107 143.396 119.808 C 142.101 118.509 141.3 116.714 141.3 114.734 C 141.3 112.753 142.101 110.959 143.396 109.659 C 144.69 108.36 146.477 107.556 148.45 107.556 C 150.423 107.556 152.21 108.36 153.504 109.659 Z " id="Oval" fill="#fde982" stroke="none" stroke-width="1" stroke-linecap="butt" stroke-linejoin="miter"/><path d="M 148.35 104.619 C 154.121 104.619 158.8 109.316 158.8 115.11 C 158.8 120.904 154.121 125.601 148.35 125.601 C 142.579 125.601 137.9 120.904 137.9 115.11 C 137.9 109.316 142.579 104.619 148.35 104.619 Z M 148.35 121.083 C 150.769 121.083 152.949 119.619 153.873 117.375 C 154.796 115.13 154.28 112.548 152.566 110.835 C 150.852 109.121 148.278 108.614 146.046 109.55 C 143.814 110.487 142.365 112.682 142.375 115.11 C 142.375 116.699 143.005 118.222 144.127 119.343 C 145.248 120.464 146.768 121.09 148.35 121.083 Z " id="Shape" fill="#5e154d" stroke="#5e154d" stroke-width="0.6" stroke-linecap="round" stroke-linejoin="round"/><path d="M 150.453 112.999 C 150.992 113.539 151.325 114.286 151.325 115.11 C 151.325 115.934 150.992 116.681 150.453 117.221 C 149.915 117.762 149.171 118.097 148.35 118.097 C 147.529 118.097 146.785 117.762 146.247 117.221 C 145.708 116.681 145.375 115.934 145.375 115.11 C 145.375 114.286 145.708 113.539 146.247 112.999 C 146.785 112.458 147.529 112.123 148.35 112.123 C 149.171 112.123 149.915 112.458 150.453 112.999 Z " id="Oval" fill="#ffffff" stroke="#a170e0" stroke-width="0.9" stroke-linecap="round" stroke-linejoin="round"/></g><g data-paper-data="{&quot;index&quot;:null}" id="Right-Wheel"><path d="M 49.429 109.659 C 50.724 110.959 51.525 112.753 51.525 114.734 C 51.525 116.714 50.724 118.509 49.429 119.808 C 48.135 121.107 46.348 121.912 44.375 121.912 C 42.402 121.912 40.615 121.107 39.321 119.808 C 38.026 118.509 37.225 116.714 37.225 114.734 C 37.225 112.753 38.026 110.959 39.321 109.659 C 40.615 108.36 42.402 107.556 44.375 107.556 C 46.348 107.556 48.135 108.36 49.429 109.659 Z " id="Oval" fill="#fde982" stroke="none" stroke-width="1" stroke-linecap="butt" stroke-linejoin="miter"/><path d="M 44.375 104.619 C 50.14 104.647 54.793 109.356 54.775 115.143 C 54.757 120.931 50.073 125.61 44.308 125.601 C 38.544 125.592 33.875 120.898 33.875 115.11 C 33.875 112.319 34.983 109.643 36.953 107.674 C 38.924 105.705 41.595 104.606 44.375 104.619 Z M 44.375 121.083 C 46.796 121.094 48.984 119.636 49.915 117.392 C 50.847 115.148 50.337 112.562 48.625 110.844 C 46.913 109.125 44.337 108.613 42.102 109.548 C 39.867 110.483 38.415 112.679 38.425 115.11 C 38.425 118.409 41.089 121.083 44.375 121.083 Z " id="Shape" fill="#5e154d" stroke="#5e154d" stroke-width="0.6" stroke-linecap="round" stroke-linejoin="round"/><path d="M 46.478 112.999 C 47.017 113.539 47.35 114.286 47.35 115.11 C 47.35 115.934 47.017 116.681 46.478 117.221 C 45.94 117.762 45.196 118.097 44.375 118.097 C 43.554 118.097 42.81 117.762 42.272 117.221 C 41.733 116.681 41.4 115.934 41.4 115.11 C 41.4 114.286 41.733 113.539 42.272 112.999 C 42.81 112.458 43.554 112.123 44.375 112.123 C 45.196 112.123 45.94 112.458 46.478 112.999 Z " id="Oval" fill="#ffffff" stroke="#a170e0" stroke-width="0.9" stroke-linecap="round" stroke-linejoin="round"/></g><g data-paper-data="{&quot;index&quot;:null}" id="Left-Door-Windows"><path d="M 167.4 62.888 L 204.9 62.888 L 204.9 114.741 L 167.4 114.741 L 167.4 62.888 " id="Path" fill="#fde982" stroke="#5e154d" stroke-width="0.9" stroke-linecap="butt" stroke-linejoin="round"/><path d="M 188.175 67.13 L 200.8 67.13 L 200.8 104.626 L 188.175 104.626 L 188.175 67.13 " id="Path" fill="#8b49d4" stroke="#ffffff" stroke-width="0.9" stroke-linecap="round" stroke-linejoin="round"/><path d="M 179.025 67.13 L 184.025 80.381 L 184.025 84.347 L 177.475 67.13 L 179.025 67.13 " id="Path" fill="#b388ed" stroke="none" stroke-width="1" stroke-linecap="butt" stroke-linejoin="miter"/><path d="M 184.075 67.13 L 184.075 80.457 L 179.075 67.205 L 184.075 67.13 " id="Path" fill="#8b49d4" stroke="none" stroke-width="1" stroke-linecap="butt" stroke-linejoin="miter"/><path d="M 172.85 67.13 L 184.075 96.57 L 184.075 104.626 L 171.575 104.626 L 171.575 67.13 L 172.85 67.13 " id="Path" fill="#8b49d4" stroke="none" stroke-width="1" stroke-linecap="butt" stroke-linejoin="miter"/><path d="M 176.075 67.13 L 184.075 88.137 L 184.075 96.57 L 172.85 67.13 L 176.075 67.13 " id="Path" fill="#b388ed" stroke="none" stroke-width="1" stroke-linecap="butt" stroke-linejoin="miter"/><path d="M 177.525 67.13 L 184.075 84.347 L 184.075 88.137 L 176.075 67.13 L 177.525 67.13 " id="Path" fill="#8b49d4" stroke="none" stroke-width="1" stroke-linecap="butt" stroke-linejoin="miter"/><path d="M 184.075 67.13 L 184.075 104.626 L 171.575 104.626 L 171.575 67.13 L 184.075 67.13 " id="Path" fill="none" stroke="#ffffff" stroke-width="0.9" stroke-linecap="round" stroke-linejoin="round"/></g><g data-paper-data="{&quot;index&quot;:null}" id="Right-Door-Windows"><path d="M 63.075 62.888 L 100.575 62.888 L 100.575 114.741 L 63.075 114.741 L 63.075 62.888 " id="Path" fill="#fde982" stroke="#5e154d" stroke-width="0.9" stroke-linecap="butt" stroke-linejoin="round"/><path d="M 67.1 67.13 L 79.6 67.13 L 79.6 104.626 L 67.1 104.626 L 67.1 67.13 " id="Path" fill="#8b49d4" stroke="#ffffff" stroke-width="0.9" stroke-linecap="round" stroke-linejoin="round"/><path d="M 88.875 67.13 L 96.375 86.731 L 96.375 95.164 L 85.7 67.13 L 88.875 67.13 " id="Path" fill="#b388ed" stroke="none" stroke-width="1" stroke-linecap="butt" stroke-linejoin="miter"/><path d="M 85.775 67.13 L 96.375 95.164 L 96.375 104.626 L 83.875 104.626 L 83.875 67.13 L 85.775 67.13 " id="Path" fill="#8b49d4" stroke="none" stroke-width="1" stroke-linecap="butt" stroke-linejoin="miter"/><path d="M 96.375 67.13 L 96.375 86.731 L 88.875 67.13 L 96.375 67.13 " id="Path" fill="#8b49d4" stroke="none" stroke-width="1" stroke-linecap="butt" stroke-linejoin="miter"/><path d="M 83.875 67.13 L 96.375 67.13 L 96.375 104.626 L 83.875 104.626 L 83.875 67.13 " id="Path" fill="none" stroke="#ffffff" stroke-width="0.9" stroke-linecap="round" stroke-linejoin="round"/></g><g data-paper-data="{&quot;index&quot;:null}" id="Left-Bar" stroke-linecap="butt" stroke-linejoin="miter"><path d="M 207.65 62.888 L 211.95 62.888 L 211.95 82.515 L 207.65 71.195 L 207.65 62.888 " id="Path" fill="#8b49d4" stroke="none" stroke-width="1"/><path d="M 211.95 88.262 L 211.95 93.006 C 212.006 94.178 211.575 95.321 210.76 96.163 C 209.945 97.005 208.819 97.47 207.65 97.448 L 207.65 76.918 Z " id="Path" fill="#8b49d4" stroke="none" stroke-width="1"/><path d="M 207.65 71.17 L 211.95 82.49 L 211.95 88.262 L 207.65 76.918 L 207.65 71.17 " id="Path" fill="#b388ed" stroke="none" stroke-width="1"/><path d="M 207.65 62.888 L 211.95 62.888 L 211.95 93.006 C 212.006 94.178 211.575 95.321 210.76 96.163 C 209.945 97.005 208.819 97.47 207.65 97.448 Z " id="Path" fill="none" stroke="#5e154d" stroke-width="0.9"/></g><g data-paper-data="{&quot;index&quot;:null,&quot;origPos&quot;:null}" id="Text" stroke-linecap="butt" stroke-linejoin="miter"><path d="M 53.0796 46.136 C 51.9966 46.114 50.9146 46.215 49.8546 46.437 C 48.5796 46.738 48.2046 47.792 49.6296 48.47 C 51.4236 49.097 52.7606 50.62 53.1546 52.486 C 53.4476 54.079 52.4836 55.635 50.9296 56.075 C 48.9376 56.525 46.8836 56.636 44.8546 56.401 L 44.8546 53.364 C 46.1266 53.484 47.4076 53.484 48.6796 53.364 C 49.5546 53.188 49.6296 52.084 48.6796 51.708 C 46.7796 50.955 44.0046 49.348 45.2546 46.086 C 46.1046 43.902 48.9796 42.647 53.0046 43.024 Z " id="Path" stroke-width="0.5" fill="#ffffff" stroke="#ffffff"/><path d="M 174.6296 47.265 C 173.7906 47.253 172.9526 47.329 172.1296 47.491 C 171.1796 47.717 170.9046 48.52 171.9796 49.022 C 173.3436 49.496 174.3526 50.662 174.6296 52.084 C 174.8696 53.289 174.1366 54.475 172.9546 54.795 C 171.4466 55.14 169.8906 55.225 168.3546 55.046 L 168.3546 52.737 C 169.3186 52.831 170.2906 52.831 171.2546 52.737 C 171.9296 52.611 171.9796 51.783 171.2546 51.482 C 169.9046 50.93 167.8046 49.75 168.7546 47.24 C 169.4046 45.584 171.5796 44.605 174.6296 44.906 Z " id="Path" stroke-width="0.5" fill="#ffffff" stroke="#ffffff"/><path d="M 63.7296 44.73 L 63.7296 47.24 C 62.1716 47.216 60.6656 47.801 59.5296 48.872 C 58.4046 50.152 58.8546 51.933 60.2296 52.134 C 61.3626 52.306 62.5216 52.131 63.5546 51.632 L 63.5546 54.142 C 62.0486 55.034 60.2626 55.321 58.5546 54.945 C 57.5536 54.73 56.6816 54.119 56.1356 53.249 C 55.5896 52.38 55.4166 51.327 55.6546 50.327 C 55.9656 48.3 57.2576 46.561 59.1046 45.684 C 60.5366 44.967 62.1316 44.638 63.7296 44.73 Z " id="Path" stroke-width="0.5" fill="#ffffff" stroke="#ffffff"/><path d="M 103.4546 44.73 L 103.4546 47.24 C 101.8976 47.218 100.3916 47.803 99.2546 48.872 C 98.1296 50.152 98.5796 51.933 99.9546 52.134 C 101.0876 52.306 102.2466 52.131 103.2796 51.632 L 103.2796 54.142 C 101.7736 55.034 99.9876 55.321 98.2796 54.945 C 97.2926 54.713 96.4386 54.095 95.9086 53.227 C 95.3776 52.36 95.2146 51.316 95.4546 50.327 C 95.7656 48.3 97.0576 46.561 98.9046 45.684 C 100.3146 44.979 101.8816 44.651 103.4546 44.73 Z " id="Path" stroke-width="0.5" fill="#ffffff" stroke="#ffffff"/><path d="M 70.3046 44.755 L 69.9546 48.144 C 71.3446 47.211 72.8966 46.547 74.5296 46.186 L 74.5296 48.696 C 72.9086 49.071 71.4116 49.858 70.1796 50.98 C 69.5316 52.351 69.1496 53.833 69.0546 55.347 L 66.3546 55.347 L 67.7546 44.705 Z " id="Path" stroke-width="0.5" fill="#ffffff" stroke="#ffffff"/><path d="M 162.1046 44.755 L 161.7546 48.144 C 163.1526 47.208 164.7126 46.544 166.3546 46.186 L 166.3546 48.696 C 164.7296 49.079 163.2256 49.864 161.9796 50.98 C 161.3316 52.351 160.9496 53.833 160.8546 55.347 L 158.1546 55.347 L 159.5046 44.705 Z " id="Path" stroke-width="0.5" fill="#ffffff" stroke="#ffffff"/><path d="M 85.8046 54.243 L 83.8296 55.246 C 83.3956 54.764 83.0176 54.234 82.7046 53.665 C 81.9126 54.946 80.3856 55.565 78.9296 55.196 C 75.8546 54.744 75.5796 49.348 77.6796 46.989 C 79.2176 45.208 81.5596 44.345 83.8796 44.705 C 83.8126 46.221 83.8626 47.74 84.0296 49.248 C 84.3126 51.008 84.9136 52.701 85.8046 54.243 Z M 81.9546 50.955 C 81.7116 49.969 81.5856 48.958 81.5796 47.943 C 80.6006 47.997 79.7236 48.571 79.2796 49.449 C 78.8046 50.377 78.9546 51.783 79.9546 51.959 C 81.0046 52.109 81.9546 50.955 81.9546 50.955 Z " id="Shape" stroke-width="0.5" fill="#ffffff" stroke="#ffffff"/><path d="M 86.5296 44.705 L 94.4546 44.705 L 94.4546 47.215 L 86.5296 47.215 Z " id="Rectangle" stroke-width="0.5" fill="#ffffff" stroke="#ffffff"/><path d="M 126.3046 41.568 L 136.3296 41.568 L 136.3296 44.078 L 126.3046 44.078 Z " id="Rectangle" stroke-width="0.5" fill="#ffffff" stroke="#ffffff"/><path d="M 92.0296 41.493 C 92.0296 41.493 90.0796 51.833 91.0296 52.41 C 91.9796 52.988 93.9046 52.084 93.9046 52.084 L 93.9046 54.443 C 92.9286 54.873 91.8696 55.078 90.8046 55.046 C 90.1156 55.087 89.4406 54.841 88.9386 54.366 C 88.4376 53.891 88.1536 53.228 88.1546 52.536 C 88.2956 48.847 88.7556 45.177 89.5296 41.568 Z " id="Path" stroke-width="0.5" fill="#ffffff" stroke="#ffffff"/><path d="M 106.3796 41.568 L 108.4796 41.568 L 107.4296 55.146 L 105.3296 55.146 L 106.3796 41.568 " id="Path" stroke-width="0.5" fill="#ffffff" stroke="#ffffff"/><path d="M 130.0796 44.053 L 132.4296 44.053 L 131.4046 55.246 L 129.0296 55.246 L 130.0796 44.053 " id="Path" stroke-width="0.5" fill="#ffffff" stroke="#ffffff"/><path d="M 108.1546 45.308 C 108.7206 44.903 109.4126 44.716 110.1046 44.781 C 111.7046 44.781 113.0046 45.91 113.2046 48.294 C 113.4176 50.278 114.1226 52.176 115.2546 53.816 L 113.0046 55.096 C 112.3486 54.197 111.8416 53.197 111.5046 52.134 C 110.7546 49.825 111.2296 48.57 110.1046 47.918 C 108.9796 47.265 107.9546 48.294 107.9546 48.294 Z " id="Path" stroke-width="0.5" fill="#ffffff" stroke="#ffffff"/><path d="M 144.5636 46.708 C 145.2756 47.761 145.4916 49.075 145.1546 50.302 C 145.0406 53.025 142.8676 55.207 140.1546 55.322 C 137.8046 55.322 136.2046 53.188 136.6296 49.85 C 136.7796 47.209 138.8306 45.075 141.4546 44.831 C 142.7146 44.969 143.8516 45.655 144.5636 46.708 Z M 142.6776 48.251 C 142.3206 47.733 141.7536 47.4 141.1296 47.341 C 139.7976 47.407 138.7526 48.512 138.7546 49.85 C 138.5296 51.482 139.3296 52.536 140.4796 52.536 C 141.8606 52.536 142.9796 51.412 142.9796 50.026 C 143.1446 49.419 143.0336 48.769 142.6776 48.251 Z " id="Shape" stroke-width="0.5" fill="#ffffff" stroke="#ffffff"/><path d="M 148.1546 45.308 L 150.2546 45.308 C 150.2546 45.308 149.2046 50.679 150.2546 52.084 C 151.3046 53.49 152.8796 52.385 153.8046 51.532 L 153.8046 54.042 C 153.0916 54.882 152.0276 55.338 150.9296 55.272 C 148.8796 55.272 147.7296 53.364 147.7296 50.603 C 147.7446 48.83 147.8876 47.06 148.1546 45.308 Z " id="Path" stroke-width="0.5" fill="#ffffff" stroke="#ffffff"/><path d="M 155.9046 45.308 C 155.5616 47.223 155.3616 49.16 155.3046 51.105 C 155.3456 52.537 155.5466 53.96 155.9046 55.347 L 153.9796 55.347 C 153.4706 54.09 153.2406 52.737 153.3046 51.381 C 153.4176 49.345 153.6516 47.316 154.0046 45.308 Z " id="Path" stroke-width="0.5" fill="#ffffff" stroke="#ffffff"/></g><g data-paper-data="{&quot;index&quot;:null}" id="Left-Window"><path d="M 149.775 62.848 L 159.375 87.946 L 155.725 87.946 L 146.15 62.848 L 149.775 62.848 " id="Path" fill="#b388ed" stroke="none" stroke-width="1" stroke-linecap="butt" stroke-linejoin="miter"/><path d="M 161.875 62.848 L 161.875 87.946 L 159.375 87.946 L 149.775 62.848 L 161.875 62.848 " id="Path" fill="#8b49d4" stroke="none" stroke-width="1" stroke-linecap="butt" stroke-linejoin="miter"/><path d="M 143.175 62.848 L 152.75 87.946 L 151.25 87.946 L 141.675 62.848 L 143.175 62.848 " id="Path" fill="#b388ed" stroke="none" stroke-width="1" stroke-linecap="butt" stroke-linejoin="miter"/><path d="M 146.15 62.848 L 155.725 87.946 L 152.75 87.946 L 143.175 62.848 L 146.15 62.848 " id="Path" fill="#8b49d4" stroke="none" stroke-width="1" stroke-linecap="butt" stroke-linejoin="miter"/><path d="M 105.925 62.848 L 141.675 62.848 L 151.25 87.946 L 105.925 87.946 L 105.925 62.848 " id="Path" fill="#8b49d4" stroke="none" stroke-width="1" stroke-linecap="butt" stroke-linejoin="miter"/><path d="M 105.925 62.848 L 161.875 62.848 L 161.875 87.946 L 105.925 87.946 L 105.925 62.848 " id="Path" fill="none" stroke="#5e154d" stroke-width="0.9" stroke-linecap="round" stroke-linejoin="round"/><path d="M 135.45 88.021 L 131.975 88.021 L 131.975 62.823 L 135.45 62.823 Z " id="Rectangle" fill="#5e154d" stroke="#5e154d" stroke-width="0.725" stroke-linecap="round" stroke-linejoin="round"/></g><g data-paper-data="{&quot;index&quot;:null}" id="Right-Window"><path d="M 34.9 62.848 L 44.475 87.946 L 39.95 87.946 L 30.375 62.848 L 34.9 62.848 " id="Path" fill="#b388ed" stroke="none" stroke-width="1" stroke-linecap="butt" stroke-linejoin="miter"/><path d="M 30.375 62.848 L 39.95 87.946 L 36.85 87.946 L 27.275 62.848 L 30.375 62.848 " id="Path" fill="#8b49d4" stroke="none" stroke-width="1" stroke-linecap="butt" stroke-linejoin="miter"/><path d="M 27.275 62.848 L 36.85 87.946 L 34.8 87.946 L 25.225 62.848 L 27.275 62.848 " id="Path" fill="#b388ed" stroke="none" stroke-width="1" stroke-linecap="butt" stroke-linejoin="miter"/><path d="M 57.875 62.848 L 57.875 87.946 L 44.475 87.946 L 34.9 62.848 L 57.875 62.848 " id="Path" fill="#8b49d4" stroke="none" stroke-width="1" stroke-linecap="butt" stroke-linejoin="miter"/><path d="M 11.375 62.848 L 25.25 62.848 L 34.8 87.946 L 11.375 87.946 L 11.375 62.848 " id="Path" fill="#8b49d4" stroke="none" stroke-width="1" stroke-linecap="butt" stroke-linejoin="miter"/><path d="M 11.625 62.848 L 58.15 62.848 L 58.15 87.946 L 11.625 87.946 L 11.625 62.848 " id="Path" fill="none" stroke="#5e154d" stroke-width="0.9" stroke-linecap="round" stroke-linejoin="round"/><path d="M 49.775 88.021 L 46.3 88.021 L 46.3 62.823 L 49.775 62.823 Z " id="Rectangle" fill="#5e154d" stroke="#5e154d" stroke-width="0.725" stroke-linecap="round" stroke-linejoin="round"/><path d="M 23.5 88.021 L 20.025 88.021 L 20.025 62.823 L 23.5 62.823 Z " id="Rectangle" fill="#5e154d" stroke="#5e154d" stroke-width="0.725" stroke-linecap="round" stroke-linejoin="round"/></g><g data-paper-data="{&quot;index&quot;:null}" id="Pattern" stroke-linecap="butt" stroke-linejoin="miter"><path d="M 207.5 38.541 L 206.1 41.578 " id="Path" stroke-width="1.2" fill="none" stroke="#d81d7b"/><path d="M 195.025 49.208 L 196.45 45.97 " id="Path" stroke-width="1.2" fill="none" stroke="#d81d7b"/><path d="M 186.1 41.678 L 188.625 40.8 " id="Path" stroke-width="1.2" fill="none" stroke="#d81d7b"/><path d="M 161.7 59.397 L 165.325 59.197 " id="Path" stroke-width="1.2" fill="none" stroke="#d81d7b"/><path d="M 175.6 40.223 L 178.275 42.306 " id="Path" stroke-width="1.2" fill="none" stroke="#d81d7b"/><path d="M 152.975 41.954 L 154.725 39.695 " id="Path" stroke-width="1.2" fill="none" stroke="#d81d7b"/><path d="M 141.2 40.775 L 138.475 39.193 " id="Path" stroke-width="1.2" fill="none" stroke="#d81d7b"/><path d="M 121.9 39.771 L 118.55 39.62 " id="Path" stroke-width="1.2" fill="none" stroke="#d81d7b"/><path d="M 98.45 53.374 L 96.55 55.859 " id="Path" stroke-width="1.2" fill="none" stroke="#d81d7b"/><path d="M 123.175 59.623 L 126.675 59.046 " id="Path" stroke-width="1.2" fill="none" stroke="#d81d7b"/><path d="M 101.375 44.966 L 98.425 43.912 " id="Path" stroke-width="1.2" fill="none" stroke="#d81d7b"/><path d="M 73.2 57.666 L 76.4 58.795 " id="Path" stroke-width="1.2" fill="none" stroke="#d81d7b"/><path d="M 39.65 57.866 L 36.85 55.683 " id="Path" stroke-width="1.2" fill="none" stroke="#d81d7b"/><path d="M 78.4 39.018 L 75.7 41.402 " id="Path" stroke-width="1.2" fill="none" stroke="#d81d7b"/><path d="M 59.225 40.122 L 63.6 40.323 " id="Path" stroke-width="1.2" fill="none" stroke="#d81d7b"/><path d="M 41.025 40.223 L 38.175 42.205 " id="Path" stroke-width="1.2" fill="none" stroke="#d81d7b"/><path d="M 22.45 43.611 L 20.65 41.578 " id="Path" stroke-width="1.2" fill="none" stroke="#d81d7b"/><path d="M 11.35 45.97 L 8.5 45.443 " id="Path" stroke-width="1.2" fill="none" stroke="#d81d7b"/><path d="M 10.675 55.783 L 9.15 58.444 " id="Path" stroke-width="1.2" fill="none" stroke="#d81d7b"/><path d="M 21.675 57.44 L 21.125 54.127 " id="Path" stroke-width="1.2" fill="none" stroke="#d81d7b"/><path d="M 33.3 48.781 L 30.375 48.781 " id="Path" stroke-width="1.2" fill="none" stroke="#d81d7b"/><path d="M 184 49.961 L 184.25 53.098 " id="Path" stroke-width="1.2" fill="none" stroke="#d81d7b"/><path d="M 145.3 56.536 L 147.475 59.423 " id="Path" stroke-width="1.2" fill="none" stroke="#d81d7b"/><path d="M 196.725 56.285 L 193.675 58.243 " id="Path" stroke-width="1.2" fill="none" stroke="#d81d7b"/><path d="M 208.15 53.148 L 204.825 52.119 " id="Path" stroke-width="1.2" fill="none" stroke="#d81d7b"/></g><g data-paper-data="{&quot;index&quot;:null}" id="Highlight"><path d="M 206.675 0.148 C 208.376 0.002 209.879 1.254 210.05 2.959 C 210.525 4.992 215.05 30.567 216.075 37.845 C 216.2 38.573 216.3 39.125 216.35 39.451 C 216.862 42.773 217.129 46.129 217.15 49.491 L 217.15 104.204 L 214.3 104.204 L 214.3 46.178 C 214.3 43.442 208.5 10.463 206.675 0.148 Z " id="Path" fill="#c1176c" stroke="none" stroke-width="1" stroke-linecap="butt" stroke-linejoin="miter"/><path d="M 3.475 11.869 L 3.475 7.476 C 3.475 4.389 4.6 3.411 7.675 3.411 L 11.375 3.411 " id="Path" fill="none" stroke="#ffffff" stroke-width="1.5" stroke-linecap="round" stroke-linejoin="round"/><path d="M 14.15 3.411 L 16.65 3.411 " id="Path" fill="none" stroke="#ffffff" stroke-width="1.5" stroke-linecap="round" stroke-linejoin="round"/><path d="M 188.175 3.411 L 137.875 3.411 " id="Path" fill="none" stroke="#f48cc5" stroke-width="1.5" stroke-linecap="round" stroke-linejoin="round"/><path d="M 135 3.411 L 130.275 3.411 " id="Path" fill="none" stroke="#f48cc5" stroke-width="1.5" stroke-linecap="round" stroke-linejoin="round"/></g><path d="M 4.925 0.6 L 206.375 0.6 C 208.75 0.6 209.625 1.453 210.1 3.411 C 210.575 5.368 215.875 36.615 216.375 39.903 C 216.886 43.225 217.154 46.581 217.175 49.942 L 217.175 110.429 C 217.161 112.821 215.233 114.757 212.85 114.771 L 161.875 114.771 C 161.875 107.272 155.82 101.193 148.35 101.193 C 145.011 101.186 141.787 102.42 139.3 104.656 C 138.228 105.645 137.317 106.797 136.6 108.069 C 135.415 110.12 134.793 112.45 134.8 114.821 L 57.9 114.821 C 57.904 112.454 57.292 110.126 56.125 108.069 C 55.395 106.814 54.476 105.68 53.4 104.706 C 48.255 100.083 40.47 100.083 35.325 104.706 C 34.264 105.687 33.354 106.82 32.625 108.069 C 31.451 110.124 30.83 112.451 30.825 114.821 L 4.925 114.821 C 2.542 114.807 0.614 112.871 0.6 110.479 L 0.6 5.067 C 0.573 3.896 1.016 2.763 1.829 1.923 C 2.643 1.083 3.758 0.606 4.925 0.6 Z " data-paper-data="{&quot;index&quot;:null}" id="Path" fill="none" stroke="#5e154d" stroke-width="1.2" stroke-linecap="round" stroke-linejoin="round"/></g></g></svg>